<?xml version="1.0" encoding="utf-8"?>
<!-- Generator: Adobe Illustrator 26.0.0, SVG Export Plug-In . SVG Version: 6.00 Build 0)  -->
<svg version="1.1" id="Layer_1" xmlns="http://www.w3.org/2000/svg" xmlns:xlink="http://www.w3.org/1999/xlink" x="0px" y="0px"
	 viewBox="0 0 500 500" style="enable-background:new 0 0 500 500;" xml:space="preserve">
<style type="text/css">
	.st0{fill:#FFFFFF;}
	.st1{fill:#033FFF;}
	.st2{fill:#4A9FF5;}
	.st3{fill:#5FF4EE;}
	.st4{fill:#C2FCF6;}
	.st5{fill:url(#SVGID_1_);}
	.st6{fill:url(#SVGID_00000022542670985828392260000005231108463886288012_);}
	.st7{fill:url(#SVGID_00000073709217358750878430000016825141102997403291_);}
	.st8{fill:url(#SVGID_00000108294095742158159230000010412682858464657833_);}
</style>
<path class="st0" d="M-39.86,179.24h-149.31c-19.88,0-36-16.12-36-36v0c0-19.88,16.12-36,36-36h149.31c19.88,0,36,16.12,36,36v0
	C-3.86,163.12-19.98,179.24-39.86,179.24z"/>
<circle class="st1" cx="-188.56" cy="144.53" r="21.98"/>
<circle class="st2" cx="-139.66" cy="144.53" r="21.98"/>
<circle class="st3" cx="-90.76" cy="144.53" r="21.98"/>
<circle class="st4" cx="-41.86" cy="144.53" r="21.98"/>
<linearGradient id="SVGID_1_" gradientUnits="userSpaceOnUse" x1="91.8897" y1="293.2989" x2="173.0334" y2="433.844">
	<stop  offset="0" style="stop-color:#C2FCF6"/>
	<stop  offset="0.1666" style="stop-color:#A6FAF4"/>
	<stop  offset="0.3888" style="stop-color:#87F7F1"/>
	<stop  offset="0.6058" style="stop-color:#71F5EF"/>
	<stop  offset="0.813" style="stop-color:#64F4EE"/>
	<stop  offset="1" style="stop-color:#5FF4EE"/>
</linearGradient>
<path class="st5" d="M284.65,279.7L38.88,509.99c-17.27,16.18-44.39,15.3-60.58-1.97l0,0c-16.18-17.27-15.3-44.39,1.97-60.58
	l245.78-230.3c17.27-16.18,44.39-15.3,60.58,1.97l0,0C302.81,236.39,301.93,263.51,284.65,279.7z"/>
<linearGradient id="SVGID_00000156557757890582577310000002052779365141196177_" gradientUnits="userSpaceOnUse" x1="102.7994" y1="400.5391" x2="183.9431" y2="541.0842">
	<stop  offset="0" style="stop-color:#C2FCF6"/>
	<stop  offset="0.1666" style="stop-color:#A6FAF4"/>
	<stop  offset="0.3888" style="stop-color:#87F7F1"/>
	<stop  offset="0.6058" style="stop-color:#71F5EF"/>
	<stop  offset="0.813" style="stop-color:#64F4EE"/>
	<stop  offset="1" style="stop-color:#5FF4EE"/>
</linearGradient>
<path style="fill:url(#SVGID_00000156557757890582577310000002052779365141196177_);" d="M295.56,386.94L49.79,617.23
	c-17.27,16.18-44.39,15.3-60.58-1.97l0,0c-16.18-17.27-15.3-44.39,1.97-60.58l245.78-230.3c17.27-16.18,44.39-15.3,60.58,1.97l0,0
	C313.72,343.63,312.84,370.75,295.56,386.94z"/>
<linearGradient id="SVGID_00000047747645867027118320000014119039702754803349_" gradientUnits="userSpaceOnUse" x1="-26.5291" y1="289.2743" x2="52.7576" y2="426.6029">
	<stop  offset="0" style="stop-color:#C2FCF6"/>
	<stop  offset="0.1666" style="stop-color:#A6FAF4"/>
	<stop  offset="0.3888" style="stop-color:#87F7F1"/>
	<stop  offset="0.6058" style="stop-color:#71F5EF"/>
	<stop  offset="0.813" style="stop-color:#64F4EE"/>
	<stop  offset="1" style="stop-color:#5FF4EE"/>
</linearGradient>
<path style="fill:url(#SVGID_00000047747645867027118320000014119039702754803349_);" d="M159.34,279.65L-74.51,498.77
	c-17.27,16.18-44.39,15.3-60.58-1.97l0,0c-16.18-17.27-15.3-44.39,1.97-60.58L100.74,217.1c17.27-16.18,44.39-15.3,60.58,1.97l0,0
	C177.5,236.35,176.62,263.47,159.34,279.65z"/>
<linearGradient id="SVGID_00000163765630018288664680000008102237464227476101_" gradientUnits="userSpaceOnUse" x1="139.1545" y1="461.3009" x2="234.5845" y2="626.5905">
	<stop  offset="0" style="stop-color:#C2FCF6"/>
	<stop  offset="0.1666" style="stop-color:#A6FAF4"/>
	<stop  offset="0.3888" style="stop-color:#87F7F1"/>
	<stop  offset="0.6058" style="stop-color:#71F5EF"/>
	<stop  offset="0.813" style="stop-color:#64F4EE"/>
	<stop  offset="1" style="stop-color:#5FF4EE"/>
</linearGradient>
<path style="fill:url(#SVGID_00000163765630018288664680000008102237464227476101_);" d="M384.93,417.09L47.42,733.34
	c-17.27,16.18-44.39,15.3-60.58-1.97l0,0c-16.18-17.27-15.3-44.39,1.97-60.58l337.51-316.25c17.27-16.18,44.39-15.3,60.58,1.97l0,0
	C403.08,373.79,402.2,400.91,384.93,417.09z"/>
</svg>
